<svg width="664" height="806" viewBox="0 0 664 806" fill="none" xmlns="http://www.w3.org/2000/svg">
<path fill-rule="evenodd" clip-rule="evenodd" d="M280.816 68.3714C327.997 64.5317 369.695 86.9264 414.831 104.642C481.594 130.846 575.087 123.99 602.523 194.64C629.988 265.362 569.295 335.279 527.259 394.153C491.154 444.72 445.157 487.733 385.932 497.99C329.851 507.704 278.603 473.385 226.346 446.271C163.746 413.79 80.0936 398.501 58.0415 327.86C35.656 256.152 80.7319 181.972 127.011 128.066C165.202 83.5803 223.799 73.0117 280.816 68.3714Z" fill="#FFD257" fill-opacity="0.5"/>
<path fill-rule="evenodd" clip-rule="evenodd" d="M275.316 318.455C322.124 310.616 365.089 327.899 411.193 340.481C479.388 359.092 572.189 344.264 603.922 408.132C635.687 472.066 579.498 543.155 541.228 602.203C508.358 652.919 465.156 697.43 406.735 712.376C351.417 726.528 298.189 698.907 244.403 678.14C179.971 653.263 95.6115 646.416 69.248 582.073C42.4859 516.758 82.8391 443.067 125.647 388.304C160.974 343.11 218.749 327.929 275.316 318.455Z" fill="#FF9F0A" fill-opacity="0.5"/>
</svg>
